<svg width="1200" height="630" preserveAspectRatio="xMidYMid" version="1.1" viewBox="0 0 1200 630" xml:space="preserve" xmlns="http://www.w3.org/2000/svg"><g transform="translate(-2.0649 3.462e-5)" fill-rule="evenodd"><g id="layer2" transform="matrix(1.4417 0 0 1.4417 -1459.1 1474.7)"><g transform="matrix(2.6317 0 0 2.6317 -1651.3 1313.3)"><path transform="matrix(.45647 0 0 .45647 539.08 -437.51)" d="m1163.2-931.45a127.02 127.02 0 0 0-127.02 127.02 127.02 127.02 0 0 0 127.02 127.02 127.02 127.02 0 0 0 127.02-127.02 127.02 127.02 0 0 0-127.02-127.02zm0 13.873a112.78 112.78 0 0 1 112.78 112.78 112.78 112.78 0 0 1-112.78 112.78 112.78 112.78 0 0 1-112.78-112.78 112.78 112.78 0 0 1 112.78-112.78z"/><path transform="matrix(.45647 0 0 .45647 539.08 -437.51)" d="m1163.2-910.41c-58.49 0-105.99 47.499-105.99 105.99s47.497 105.99 105.99 105.99 105.99-47.497 105.99-105.99-47.499-105.99-105.99-105.99zm0 7.6327c54.366 0 98.357 43.991 98.357 98.357s-43.991 98.355-98.357 98.355-98.355-43.989-98.355-98.355 43.989-98.357 98.355-98.357z" style="-inkscape-stroke:none;color:#000000;stroke-linecap:round;stroke-linejoin:round;stroke-width:.95409"/><path transform="matrix(.45647 0 0 .45647 539.08 -437.51)" d="m1141.4-831.16a6.2432 6.2432 0 0 0 2.8303-6.3977l0.011-0.0242s-2.4533-23.868-7.4865-34.508c-2.2807-4.8211-9.9367-12.541-9.9367-12.541a4.1894 4.4348 58.078 0 0-5.98-1.2104c-10.701 3.4903-16.349 8.1276-20.892 13.016a4.1894 4.4348 58.078 0 0-1.5495 5.9012s3.6547 10.244 7.082 14.319c7.5842 9.0175 28.261 20.782 28.819 21.098a6.2432 6.2432 0 0 0 7.1036 0.34715zm-2.7778-4.0453a4.4125 4.4125 0 0 1-5.0202-0.24598c-0.3948-0.22393-15.009-8.537-20.369-14.91-2.4223-2.8801-5.0058-10.122-5.0058-10.122a2.9609 3.1344 58.078 0 1 1.095-4.1707c3.2115-3.4547 7.2023-6.7319 14.766-9.1987a2.9609 3.1344 58.078 0 1 4.2263 0.85554s5.413 5.457 7.025 8.8643c3.5573 7.5199 5.2901 24.389 5.2901 24.389l-0.011 0.0157a4.4125 4.4125 0 0 1-1.999 4.5221z"/><path transform="matrix(-.36606 .27269 -.27269 -.36606 1276.4 -1416.5)" d="m1198.4-720.94 4.052 1.5096c12.318-4.2962 22.587-12.589 29.525-20.709l-0.4904-4.4401-40.582-39.658c-5.7347-3.4354-11.664-5.6574-18.883-7.7694-0.4331 10.352 0.4524 18.523 1.8323 20.61zm0.7235-15.026c-5.2985-10.231-10.43-20.719-14.625-32.662-0.1732-1.3637 0.1526-3.3881 1.7715-4.553 1.609-0.82142 3.4618-0.28944 4.8883 0.68749 9.5296 7.5935 17.722 15.664 25.911 23.736-5.169 4.8332-10.452 9.5869-17.946 12.791z"/><path transform="matrix(.45647 0 0 .45647 539.08 -437.51)" d="m1130-793.46a6.2432 6.2432 0 0 0-5.349-4.509l-0.021-0.0163s-23.6-4.3303-35.224-2.4787c-5.2669 0.839-14.822 6.0263-14.822 6.0263a4.4348 4.1894 74.344 0 0-2.8369 5.4016c0.3532 11.25 3.223 17.971 6.6428 23.702a4.4348 4.1894 74.344 0 0 5.231 3.1403s10.858-0.63908 15.73-2.7878c10.781-4.7548 27.866-21.309 28.326-21.756a6.2432 6.2432 0 0 0 2.3228-6.722zm-4.6615 1.5336a4.4125 4.4125 0 0 1-1.6423 4.7503c-0.3256 0.31632-12.399 12.017-20.019 15.377-3.4432 1.5187-11.119 1.9702-11.119 1.9702a3.1344 2.9609 74.344 0 1-3.6971-2.2194c-2.4169-4.0505-4.4449-8.7996-4.6947-16.751a3.1344 2.9609 74.344 0 1 2.0051-3.8176s6.7547-3.6678 10.477-4.261c8.2153-1.3086 24.895 1.753 24.895 1.753l0.013 0.0114a4.4125 4.4125 0 0 1 3.7814 3.1856z"/><path transform="matrix(.14352 .43332 -.43332 .14352 554.33 -1193.2)" d="m1172-792.01c-0.4331 10.352 0.4517 18.522 1.8316 20.61l24.547 50.456 4.0516 1.5105c12.318-4.2962 22.587-12.589 29.525-20.709l-0.4905-4.4404-40.582-39.659c-5.7347-3.4354-11.663-5.6568-18.883-7.7688zm14.249 18.826c1.7368-0.8886 3.3898-0.48309 4.8883 0.68719 9.5296 7.5935 17.721 15.664 25.91 23.736-5.1691 4.8332-10.452 9.5866-17.945 12.791-5.2986-10.231-10.43-20.719-14.625-32.662-0.055-0.43375-0.2942-3.0657 1.7714-4.5521z"/><path transform="matrix(.45647 0 0 .45647 539.08 -437.51)" d="m1162-770.83a6.2432 6.2432 0 0 0-5.7852 3.9336l-0.021 0.0156s-10.539 21.556-11.893 33.248c-0.6135 5.2979 1.8027 15.898 1.8027 15.898a4.4348 4.1894 0 0 0 4.4356 4.1894c10.928 2.696 18.174 1.7462 24.615 0a4.4348 4.1894 0 0 0 4.4355-4.1894s2.3148-10.627 1.5606-15.898c-1.669-11.664-12.998-32.582-13.305-33.146a6.2432 6.2432 0 0 0-5.8457-4.0508zm0.2187 4.9023a4.4125 4.4125 0 0 1 4.1309 2.8633c0.2167 0.39884 8.2248 15.182 9.4043 23.426 0.5331 3.7254-1.1036 11.238-1.1036 11.238a3.1344 2.9609 0 0 1-3.1347 2.9609c-4.5525 1.2341-9.6727 1.9054-17.396 0a3.1344 2.9609 0 0 1-3.1348-2.9609s-1.7089-7.4939-1.2754-11.238c0.957-8.2636 8.4063-23.498 8.4063-23.498l0.014-0.01a4.4125 4.4125 0 0 1 4.0878-2.7812z"/><path transform="matrix(.45647 0 0 .45647 539.08 -437.51)" d="m1172-792.01c-0.4331 10.352 0.4515 18.523 1.8314 20.61l24.547 50.457 4.0523 1.5104c12.318-4.2962 22.587-12.589 29.525-20.709l-0.4908-4.4408-40.582-39.659c-5.7347-3.4354-11.663-5.6564-18.883-7.7684zm19.136 19.513c9.5295 7.5935 17.721 15.663 25.91 23.736-5.169 4.8332-10.452 9.5868-17.945 12.791-5.2986-10.231-10.43-20.719-14.625-32.662-0.1732-1.3637 0.1527-3.388 1.7716-4.5528 0.8284-0.40235 3.6025-0.42727 4.888 0.68771z"/><path transform="matrix(.45647 0 0 .45647 539.08 -437.51)" d="m1193.8-794.57a6.2432 6.2432 0 0 0 1.6851 6.7898v0.0257s16.568 17.356 27.067 22.677c4.757 2.4114 15.538 3.8184 15.538 3.8184a4.1894 4.4348 20.276 0 0 5.4669-2.709c6.3161-9.3169 7.9358-16.442 8.5302-23.09a4.1894 4.4348 20.276 0 0-2.3928-5.6125s-9.1668-5.8542-14.372-6.9733c-11.52-2.4764-35.068 0.90181-35.703 0.99375a6.2432 6.2432 0 0 0-5.8255 4.0797zm4.6743 1.4937a4.4125 4.4125 0 0 1 4.1174-2.8827c0.4493-0.0647 17.092-2.454 25.233-0.70363 3.6793 0.79092 10.16 4.9297 10.16 4.9297a2.9609 3.1344 20.276 0 1 1.6912 3.9665c-0.42 4.6981-1.5647 9.7336-6.0286 16.319a2.9609 3.1344 20.276 0 1-3.8637 1.9145s-7.6218-0.99391-10.984-2.6981c-7.4199-3.7613-19.129-16.028-19.129-16.028l-9e-4 -0.017a4.4125 4.4125 0 0 1-1.1924-4.7983z"/><path transform="matrix(.14035 -.43435 .43435 .14035 1256.3 -186.65)" d="m1231.4-744.58-40.582-39.658c-5.7347-3.4354-11.664-5.6566-18.884-7.7685-0.4331 10.352 0.4524 18.522 1.8323 20.609l24.546 50.456 4.0525 1.5106c12.318-4.2962 22.587-12.589 29.525-20.709zm-14.418-4.1774c-5.1691 4.8332-10.451 9.5864-17.944 12.791-5.2986-10.231-10.431-20.718-14.626-32.661-0.1732-1.3637 0.153-3.3884 1.7719-4.5532 1.1949-0.58031 3.8181-0.24173 4.8887 0.68687 9.5296 7.5935 17.72 15.664 25.909 23.737z"/><path transform="matrix(.45647 0 0 .45647 539.08 -437.51)" d="m1184.1-831.73a6.2432 6.2432 0 0 0 6.9915 0.24547l0.026-1e-4s21.24-11.162 29.242-19.794c3.6257-3.9114 7.9408-13.891 7.9408-13.891a4.4348 4.1894 36.224 0 0-1.1025-6.0009c-7.2228-8.6329-13.629-12.148-19.857-14.546a4.4348 4.1894 36.224 0 0-6.0539 0.75855s-8.1476 7.2053-10.654 11.903c-5.5464 10.396-8.7685 33.966-8.8547 34.602a6.2432 6.2432 0 0 0 2.3221 6.7223zm2.7205-4.084a4.4125 4.4125 0 0 1-1.6404-4.751c0.061-0.44982 2.3368-17.108 6.2568-24.455 1.7715-3.3203 7.5316-8.4139 7.5316-8.4139a3.1344 2.9609 36.224 0 1 4.2785-0.53618c4.4018 1.6947 8.9291 4.1789 14.034 10.28a3.1344 2.9609 36.224 0 1 0.7793 4.2411s-3.05 7.0553-5.6124 9.8198c-5.6554 6.1008-20.668 13.988-20.668 13.988l-0.017-6.3e-4a4.4125 4.4125 0 0 1-4.9412-0.172z"/><path transform="matrix(-.36545 -.2735 .2735 -.36545 1714.8 -780.69)" d="m1219.2-728.35c4.9743-3.6252 9.2763-7.7278 12.745-11.788l-0.4912-4.441-40.582-39.658c-5.7347-3.4354-11.663-5.6575-18.883-7.7694-0.4331 10.352 0.4515 18.523 1.8314 20.61l24.547 50.457 4.0527 1.5106c6.1591-2.1481 11.806-5.2957 16.78-8.9209zm-10.264-13.401c-2.9036 2.193-6.0981 4.1834-9.8446 5.7856-5.2986-10.231-10.429-20.719-14.624-32.662-0.1732-1.3637 0.1525-3.3875 1.7714-4.5523 1.0809-0.52495 4.0212-0.0648 4.888 0.68708 9.5295 7.5935 17.722 15.663 25.91 23.736-2.5845 2.4166-5.1973 4.8129-8.1009 7.0059z"/></g><path d="m1155.9-801.63 1.6205-5.623-1.1715-3.7291h-1.1128v-0.37096h6.0525v0.37096h-1.152l2.9092 9.2349 2.3428-9.2349h-1.972v-0.37096h3.9049v0.37096h-1.2886l-3.5924 13.491h-1.7376l-2.8897-8.8249-2.5381 8.8249h-1.6986l-4.92-13.491h-0.9177v-0.37096h6.3453v0.37096h-1.3667zm12.027-9.723h5.9549v0.37096h-1.0738v6.1696l0.1562-0.0391 5.5058-6.1306h-1.5424v-0.37095h3.4167v0.37095h-1.1714l-3.3582 3.7486 4.6858 9.1764h1.0543v0.37096h-6.2672v-0.37096h0.9176l-3.2215-6.2282-0.1757 0.0391v6.1892h1.0738v0.37096h-5.9549v-0.37096h1.0739v-12.925h-1.0739z" style="stroke-linecap:round;stroke-linejoin:round;stroke-width:.12094" aria-label="WK"/></g><g transform="translate(0 3.4125)"><path d="m611.5 359.63 37.173-128.99-26.872-85.543h-25.528v-8.5095h138.84v8.5095h-26.424l66.732 211.84 53.744-211.84h-45.235v-8.5095h89.573v8.5095h-29.559l-82.408 309.48h-39.86l-66.284-202.44-58.223 202.44h-38.964l-112.86-309.48h-21.05v-8.5095h145.56v8.5095h-31.351zm275.89-223.04h136.6v8.5095h-24.633v141.53l3.5829-0.89573 126.3-140.63h-35.382v-8.5095h78.377v8.5095h-26.872l-77.033 85.99 107.49 210.5h24.185v8.5095h-143.77v-8.5095h21.05l-73.898-142.87-4.0308 0.89574v141.97h24.633v8.5095h-136.6v-8.5095h24.633v-296.49h-24.633z" style="stroke-linecap:round;stroke-linejoin:round;stroke-width:3.6739" aria-label="WK"/><path d="m359.99 513.38h839.57" style="fill:none;stroke-linecap:round;stroke-linejoin:round;stroke-width:8.5017;stroke:#000"/><path d="m407.6 497.86h792.4" style="fill:none;stroke-linecap:round;stroke-linejoin:round;stroke-width:8.2594;stroke:#000"/><path d="m452.14 482.57h747.78" style="fill:none;stroke-linecap:round;stroke-linejoin:round;stroke-width:8.0235;stroke:#000"/></g></g></svg>
